<svg width="26" height="16" viewBox="0 0 26 16" fill="none" xmlns="http://www.w3.org/2000/svg">
<path d="M25.8622 13.9799C25.8307 13.912 25.8013 13.8558 25.7741 13.8107C25.323 12.9982 24.4609 12.001 23.1885 10.8187L23.1616 10.7917L23.1481 10.7784L23.1345 10.7648H23.1209C22.5434 10.2143 22.1777 9.84409 22.0245 9.65458C21.7443 9.29356 21.6815 8.92814 21.8347 8.55788C21.9429 8.27814 22.3493 7.68736 23.053 6.78473C23.4232 6.30637 23.7163 5.92298 23.9328 5.63413C25.4942 3.55833 26.1712 2.23187 25.9635 1.65422L25.8828 1.51923C25.8286 1.43796 25.6888 1.36362 25.4634 1.29582C25.2375 1.22816 24.9488 1.21697 24.5968 1.26206L20.6982 1.28899C20.635 1.26661 20.5448 1.2687 20.4274 1.29582C20.31 1.32294 20.2513 1.33655 20.2513 1.33655L20.1835 1.37045L20.1296 1.41118C20.0845 1.43811 20.0348 1.48547 19.9806 1.55318C19.9267 1.62065 19.8816 1.69983 19.8456 1.79006C19.4211 2.88206 18.9385 3.89734 18.3969 4.83586C18.063 5.39549 17.7563 5.88049 17.4762 6.29115C17.1965 6.70166 16.9619 7.00412 16.7725 7.19799C16.5829 7.39206 16.4117 7.54753 16.258 7.66498C16.1045 7.78247 15.9873 7.83211 15.9062 7.81395C15.8249 7.79579 15.7483 7.77777 15.6758 7.75976C15.5496 7.67849 15.448 7.56797 15.3714 7.42809C15.2945 7.28822 15.2427 7.11217 15.2157 6.90009C15.1887 6.68786 15.1728 6.50532 15.1683 6.35184C15.164 6.19855 15.166 5.98172 15.1751 5.70198C15.1845 5.42209 15.1887 5.23272 15.1887 5.13343C15.1887 4.79044 15.1954 4.41819 15.2088 4.01659C15.2225 3.61499 15.2335 3.29679 15.2428 3.06238C15.252 2.82772 15.2563 2.57946 15.2563 2.31774C15.2563 2.05601 15.2403 1.85075 15.2088 1.70178C15.1777 1.55299 15.13 1.40857 15.0671 1.26855C15.0038 1.12868 14.9111 1.02048 14.7896 0.943671C14.6677 0.866954 14.5163 0.806074 14.3361 0.760841C13.8577 0.652594 13.2486 0.594038 12.5084 0.584934C10.8299 0.566917 9.75136 0.675305 9.27305 0.909959C9.08353 1.0091 8.91204 1.14456 8.7587 1.31592C8.59621 1.51454 8.57355 1.62293 8.69085 1.64076C9.23241 1.72188 9.61581 1.91595 9.84145 2.22277L9.92277 2.38535C9.98602 2.50265 10.0492 2.71033 10.1124 3.00809C10.1755 3.30585 10.2162 3.63524 10.2341 3.99606C10.2792 4.65498 10.2792 5.21902 10.2341 5.68823C10.1889 6.15763 10.1463 6.52305 10.1055 6.78478C10.0648 7.0465 10.0039 7.25859 9.92277 7.42098C9.84145 7.58342 9.78735 7.68271 9.76023 7.71874C9.73316 7.75478 9.71059 7.77749 9.69266 7.78641C9.57536 7.83135 9.45336 7.85425 9.3271 7.85425C9.20065 7.85425 9.04731 7.791 8.86685 7.6646C8.68644 7.53819 8.4992 7.36456 8.30513 7.14342C8.11107 6.92223 7.8922 6.61314 7.64845 6.21609C7.40488 5.81904 7.15216 5.34979 6.89043 4.80831L6.67389 4.41563C6.53852 4.16301 6.35361 3.79517 6.11895 3.31244C5.88416 2.82953 5.67663 2.3624 5.49622 1.91116C5.4241 1.72164 5.31576 1.57736 5.17138 1.47808L5.10363 1.43735C5.05858 1.40131 4.98628 1.36305 4.88708 1.32227C4.78775 1.28154 4.6841 1.25234 4.57572 1.23437L0.866543 1.2613C0.487514 1.2613 0.230339 1.34717 0.0949234 1.51866L0.0407289 1.59979C0.0136553 1.64497 0 1.71714 0 1.81647C0 1.91576 0.0270736 2.03761 0.0812681 2.18189C0.622739 3.45449 1.21158 4.68181 1.84778 5.86404C2.48399 7.04627 3.03684 7.99858 3.506 8.72013C3.97526 9.44221 4.45358 10.1237 4.94095 10.7643C5.42832 11.4051 5.75093 11.8157 5.90877 11.9961C6.0668 12.1769 6.19093 12.312 6.28116 12.4022L6.61965 12.7271C6.83624 12.9437 7.15429 13.2032 7.57396 13.5054C7.99372 13.8079 8.45842 14.1056 8.96832 14.3992C9.4783 14.6922 10.0716 14.9314 10.7485 15.1164C11.4254 15.3015 12.0841 15.3758 12.7249 15.34H14.2818C14.5975 15.3127 14.8367 15.2134 14.9993 15.0421L15.0531 14.9742C15.0894 14.9204 15.1233 14.8367 15.1546 14.7241C15.1862 14.6113 15.202 14.487 15.202 14.3518C15.1927 13.9638 15.2223 13.6141 15.2898 13.3028C15.3572 12.9916 15.4342 12.7569 15.5202 12.5989C15.6061 12.441 15.7031 12.3078 15.8111 12.1998C15.9193 12.0915 15.9964 12.026 16.0416 12.0034C16.0866 11.9807 16.1225 11.9653 16.1495 11.956C16.3661 11.8839 16.621 11.9537 16.9146 12.166C17.208 12.3781 17.4831 12.64 17.7405 12.9512C17.9977 13.2627 18.3067 13.6122 18.6677 14.0002C19.0288 14.3883 19.3446 14.6768 19.6152 14.8666L19.8859 15.0291C20.0666 15.1375 20.3013 15.2368 20.5901 15.327C20.8785 15.4172 21.1311 15.4397 21.348 15.3946L24.8134 15.3406C25.1561 15.3406 25.4228 15.2838 25.612 15.1712C25.8016 15.0584 25.9142 14.9342 25.9505 14.799C25.9867 14.6637 25.9887 14.5101 25.9574 14.3385C25.9253 14.1673 25.8937 14.0476 25.8622 13.9799Z" fill="#7E7E7E"/>
</svg>
